<svg xmlns="http://www.w3.org/2000/svg" width="28.769" height="24.169" viewBox="0 0 28.769 24.169">
  <g id="bath" transform="translate(-7.875 -47.875)">
    <path id="Path_12291" data-name="Path 12291" d="M36.059,59.96h-23v-.92a.46.46,0,0,0-.46-.46h-.46V57.2h.92v.46a.46.46,0,1,0,.92,0V55.82a.46.46,0,0,0-.92,0v.46h-.92V50.76a1.842,1.842,0,0,1,1.84-1.84h1.84a1.842,1.842,0,0,1,1.84,1.84V50.8a2.764,2.764,0,0,0-2.3,2.721.46.46,0,0,0,.46.46h4.6a.46.46,0,0,0,.46-.46,2.764,2.764,0,0,0-2.3-2.721V50.76A2.763,2.763,0,0,0,15.82,48H13.98a2.763,2.763,0,0,0-2.76,2.76v7.82h-.46a.46.46,0,0,0-.46.46v.92H8.46a.46.46,0,0,0-.46.46V61.8a.46.46,0,0,0,.46.46H9.84v5.52a2.764,2.764,0,0,0,2.3,2.721v.959a.46.46,0,1,0,.92,0v-.92h18.4v.92a.46.46,0,1,0,.92,0V70.5a2.764,2.764,0,0,0,2.3-2.721V62.26h1.38a.46.46,0,0,0,.46-.46V60.42A.46.46,0,0,0,36.059,59.96ZM18.12,51.68A1.843,1.843,0,0,1,19.9,53.06H16.338a1.843,1.843,0,0,1,1.782-1.38Zm-6.9,7.82h.92v.46h-.92Zm22.539,8.28a1.842,1.842,0,0,1-1.84,1.84H12.6a1.842,1.842,0,0,1-1.84-1.84V62.26h23Zm1.84-6.44H8.92v-.46H35.6Z" transform="translate(0 0)" fill="#c0a059" stroke="#c0a059" stroke-width="0.25"/>
    <path id="Path_12292" data-name="Path 12292" d="M72.46,312.92h3.68a.46.46,0,1,0,0-.92H72.46a.46.46,0,1,0,0,.92Z" transform="translate(-60.32 -248.82)" fill="#c0a059" stroke="#c0a059" stroke-width="0.25"/>
    <path id="Path_12293" data-name="Path 12293" d="M160.46,312.92h.46a.46.46,0,1,0,0-.92h-.46a.46.46,0,1,0,0,.92Z" transform="translate(-143.26 -248.82)" fill="#c0a059" stroke="#c0a059" stroke-width="0.25"/>
  </g>
</svg>
