<svg xmlns="http://www.w3.org/2000/svg" width="27.68" height="19.716" viewBox="0 0 27.68 19.716">
  <path id="bed-1" d="M34.987,94.6h-.442V91.06a1.772,1.772,0,0,0-1.77-1.77V81.77A1.772,1.772,0,0,0,31.005,80H12.424a1.772,1.772,0,0,0-1.77,1.77v7.521a1.772,1.772,0,0,0-1.77,1.77V94.6H8.442A.442.442,0,0,0,8,95.042v1.77a.442.442,0,0,0,.442.442h.442v1.77a.442.442,0,0,0,.442.442h1.327a.442.442,0,0,0,.434-.356l.372-1.856H31.97l.372,1.856a.442.442,0,0,0,.434.356H34.1a.442.442,0,0,0,.442-.442v-1.77h.442a.442.442,0,0,0,.442-.442v-1.77A.442.442,0,0,0,34.987,94.6ZM11.539,81.77a.886.886,0,0,1,.885-.885H31.005a.886.886,0,0,1,.885.885v7.521h-.885v-1.77a1.772,1.772,0,0,0-1.77-1.77H23.927a1.772,1.772,0,0,0-1.77,1.77v1.77h-.885v-1.77a1.772,1.772,0,0,0-1.77-1.77H14.194a1.772,1.772,0,0,0-1.77,1.77v1.77h-.885Zm18.581,5.751v1.77H23.042v-1.77a.886.886,0,0,1,.885-.885h5.309a.886.886,0,0,1,.885.885Zm-9.733,0v1.77H13.309v-1.77a.886.886,0,0,1,.885-.885H19.5A.886.886,0,0,1,20.388,87.521ZM9.77,91.06a.886.886,0,0,1,.885-.885H32.775a.886.886,0,0,1,.885.885V94.6H9.77Zm.522,7.521H9.77V97.254h.787Zm23.368,0h-.522l-.265-1.327h.787Zm.885-2.212H8.885v-.885h25.66Z" transform="translate(-7.875 -79.875)" fill="#c0a059" stroke="#c0a059" stroke-width="0.25"/>
</svg>
