<svg id="buy-home" xmlns="http://www.w3.org/2000/svg" width="34.28" height="33.536" viewBox="0 0 34.28 33.536">
  <path id="Path_9132" data-name="Path 9132" d="M27.092,53.671a.49.49,0,1,1-.01-.98l3.238-.069h.01a.49.49,0,1,1,.01.98l-3.238.069Z" transform="translate(-14.55 -28.206)" fill="#fff"/>
  <path id="Path_9133" data-name="Path 9133" d="M24.808,56.218a3.086,3.086,0,0,1-.962-.154L13.114,52.538a5.759,5.759,0,0,0-1.29-.264.49.49,0,0,1-.446-.53.483.483,0,0,1,.529-.447,6.773,6.773,0,0,1,1.511.309l10.734,3.527a2.08,2.08,0,0,0,1.877-.294l13.543-9.808a1.248,1.248,0,0,0-1.425-2.049L26.791,50.455a.49.49,0,0,1-.528.007L22.307,48a.49.49,0,0,1,.245-.906l6.489-.144A1.153,1.153,0,0,0,30.167,45.9a.651.651,0,0,0,0-.094,1.147,1.147,0,0,0-1.022-1.144l-12.1-1.39a8.124,8.124,0,0,0-3.66.433l-1.352.5a.49.49,0,1,1-.338-.919l1.355-.5A9.119,9.119,0,0,1,17.16,42.3l12.1,1.39a2.125,2.125,0,0,1,1.892,2.117,1.709,1.709,0,0,1-.01.2,2.1,2.1,0,0,1-.1.48l6.575-4.326a2.228,2.228,0,0,1,2.532,3.665L26.608,55.634a3.046,3.046,0,0,1-1.8.584Zm-.588-8.177,2.291,1.423,2.319-1.525Z" transform="translate(-6.784 -22.683)" fill="#fff"/>
  <path id="Path_9134" data-name="Path 9134" d="M47.871,44.643a.49.49,0,0,1-.187-.942l4.531-1.877a2.562,2.562,0,0,1,2.98.776l.277.351a.49.49,0,0,1-.769.607l-.277-.351a1.577,1.577,0,0,0-1.836-.478L48.059,44.6A.49.49,0,0,1,47.871,44.643Z" transform="translate(-25.154 -22.598)" fill="#fff"/>
  <path id="Path_9135" data-name="Path 9135" d="M6.1,53.97H3.469A1.469,1.469,0,0,1,2,52.5V41.826a1.469,1.469,0,0,1,1.469-1.469H6.1a1.469,1.469,0,0,1,1.469,1.469V52.5A1.469,1.469,0,0,1,6.1,53.97ZM3.469,41.337a.49.49,0,0,0-.49.49V52.5a.49.49,0,0,0,.49.49H6.1a.49.49,0,0,0,.49-.49V41.826a.49.49,0,0,0-.49-.49Z" transform="translate(-2 -21.948)" fill="#fff"/>
  <path id="Path_9136" data-name="Path 9136" d="M37.883,20.163H25.87a.49.49,0,0,1-.49-.49v-6.84H23.607a.49.49,0,0,1-.362-.819l8.269-9.088a.5.5,0,0,1,.724,0l8.269,9.088a.49.49,0,0,1-.362.819H38.373v6.84a.49.49,0,0,1-.49.49Zm-11.523-.98H37.393v-6.84a.49.49,0,0,1,.49-.49h1.155L31.876,3.984l-7.161,7.871H25.87a.49.49,0,0,1,.49.49Z" transform="translate(-12.774 -2.773)" fill="#fff"/>
  <path id="Path_9137" data-name="Path 9137" d="M34.913,25.22a.49.49,0,0,1-.346-.836l5.293-5.294a.49.49,0,1,1,.693.693l-5.293,5.294A.49.49,0,0,1,34.913,25.22Z" transform="translate(-18.542 -11.025)" fill="#fff"/>
  <path id="Path_9138" data-name="Path 9138" d="M35.073,20.8a1.474,1.474,0,1,1,1.043-.431,1.474,1.474,0,0,1-1.043.431Zm0-1.969a.495.495,0,1,0,.35.147A.495.495,0,0,0,35.073,18.832Z" transform="translate(-18.122 -10.467)" fill="#fff"/>
  <path id="Path_9139" data-name="Path 9139" d="M43.778,29.508a1.475,1.475,0,1,1,1.043-.432A1.475,1.475,0,0,1,43.778,29.508Zm0-1.969a.495.495,0,0,0-.35.845.506.506,0,0,0,.7,0,.495.495,0,0,0-.35-.844Z" transform="translate(-22.562 -14.908)" fill="#fff"/>
</svg>
