<svg xmlns="http://www.w3.org/2000/svg" width="33.999" height="31.28" viewBox="0 0 33.999 31.28">
  <g id="comment" transform="translate(-0.001 1.332)">
    <path id="Path_2563" data-name="Path 2563" d="M29.326-1.332H4.675A4.679,4.679,0,0,0,0,3.342V18.428A4.68,4.68,0,0,0,4.658,23.1v6.846L14.5,23.1H29.326A4.68,4.68,0,0,0,34,18.428V3.342a4.679,4.679,0,0,0-4.674-4.674Zm2.682,19.76a2.685,2.685,0,0,1-2.682,2.682H13.871L6.651,26.135V21.11H4.675a2.685,2.685,0,0,1-2.682-2.682V3.342A2.685,2.685,0,0,1,4.675.66H29.326a2.685,2.685,0,0,1,2.682,2.682Zm0,0" transform="translate(0)" fill="#c0a059"/>
    <path id="Path_2564" data-name="Path 2564" d="M171.293,131.172h15.8v1.992h-15.8Zm0,0" transform="translate(-162.193 -125.465)" fill="#c0a059"/>
    <path id="Path_2565" data-name="Path 2565" d="M171.293,211.172h15.8v1.992h-15.8Zm0,0" transform="translate(-162.193 -201.215)" fill="#c0a059"/>
    <path id="Path_2566" data-name="Path 2566" d="M171.293,291.172h15.8v1.992h-15.8Zm0,0" transform="translate(-162.193 -276.965)" fill="#c0a059"/>
  </g>
</svg>
