<svg xmlns="http://www.w3.org/2000/svg" width="20.171" height="20.171" viewBox="0 0 20.171 20.171">
  <g id="full-size" transform="translate(0 -0.002)">
    <path id="Path_12299" data-name="Path 12299" d="M.7,6.1a.7.7,0,0,0,.7-.7v-3L5.93,6.924a.7.7,0,1,0,.993-.994L2.4,1.407h3A.7.7,0,1,0,5.394,0H.7A.7.7,0,0,0,0,.7V5.4A.7.7,0,0,0,.7,6.1Z" fill="#c0a059"/>
    <path id="Path_12300" data-name="Path 12300" d="M144.32,138.924a.7.7,0,0,0-.7.7v3l-4.664-4.664a.7.7,0,1,0-.994.993l4.664,4.664h-3a.7.7,0,0,0,0,1.405h4.691a.7.7,0,0,0,.7-.7v-4.691A.7.7,0,0,0,144.32,138.924Z" transform="translate(-124.851 -124.848)" fill="#c0a059"/>
    <path id="Path_12301" data-name="Path 12301" d="M6.073,137.958,1.41,142.622v-3a.7.7,0,0,0-1.405,0v4.691a.7.7,0,0,0,.7.7H5.4a.7.7,0,1,0,0-1.4h-3l4.664-4.664a.7.7,0,0,0-.994-.993Z" transform="translate(-0.005 -124.847)" fill="#c0a059"/>
    <path id="Path_12302" data-name="Path 12302" d="M145.674,0h-4.691a.7.7,0,0,0,0,1.405h3l-4.524,4.524a.7.7,0,0,0,.994.993L144.972,2.4v3a.7.7,0,1,0,1.4,0V.7A.7.7,0,0,0,145.674,0Z" transform="translate(-126.205 0)" fill="#c0a059"/>
  </g>
</svg>
