<svg xmlns="http://www.w3.org/2000/svg" width="29.036" height="24.096" viewBox="0 0 29.036 24.096">
  <g id="heart-1" transform="translate(0.125 0.125)">
    <g id="Group_2794" data-name="Group 2794">
      <path id="Path_12217" data-name="Path 12217" d="M20.624,35.515h0a8.089,8.089,0,0,0-6.231,2.879,7.98,7.98,0,0,0-6.231-2.879A8.162,8.162,0,0,0,0,43.677C0,51.4,13.482,58.944,14.029,59.236a.656.656,0,0,0,.729,0c.547-.292,14.029-7.725,14.029-15.559A8.162,8.162,0,0,0,20.624,35.515ZM14.393,57.778c-2.113-1.239-12.936-7.834-12.936-14.1a6.7,6.7,0,0,1,6.7-6.7A6.559,6.559,0,0,1,13.774,40a.765.765,0,0,0,1.239,0,6.7,6.7,0,0,1,12.316,3.68C27.329,50.017,16.506,56.576,14.393,57.778Z" transform="translate(0 -35.514)" fill="#c0a059" stroke="#c0a059" stroke-width="0.25"/>
    </g>
  </g>
</svg>
