<svg xmlns="http://www.w3.org/2000/svg" width="33.53" height="29.889" viewBox="0 0 33.53 29.889">
  <g id="home" transform="translate(0.001 -27.797)">
    <g id="Group_3863" data-name="Group 3863" transform="translate(-0.001 27.798)">
      <g id="Group_3862" data-name="Group 3862" transform="translate(0 0)">
        <path id="Path_12333" data-name="Path 12333" d="M33.173,39.6,17.279,27.966a.871.871,0,0,0-1.029,0L.356,39.6a.871.871,0,0,0,1.029,1.406l15.379-11.26,15.379,11.26A.871.871,0,0,0,33.173,39.6Z" transform="translate(0.001 -27.798)" fill="#c0a059"/>
      </g>
    </g>
    <g id="Group_3865" data-name="Group 3865" transform="translate(3.696 41.206)">
      <g id="Group_3864" data-name="Group 3864">
        <path id="Path_12334" data-name="Path 12334" d="M81.717,232.543a.871.871,0,0,0-.871.871v13.867H73.877v-7.57a4.356,4.356,0,0,0-8.713,0v7.57h-6.97V233.414a.871.871,0,1,0-1.742,0v14.738a.871.871,0,0,0,.871.871h8.712a.871.871,0,0,0,.868-.8.657.657,0,0,0,0-.068v-8.441a2.614,2.614,0,1,1,5.228,0v8.441a.638.638,0,0,0,0,.067.871.871,0,0,0,.868.8h8.712a.871.871,0,0,0,.871-.871V233.414A.871.871,0,0,0,81.717,232.543Z" transform="translate(-56.452 -232.543)" fill="#c0a059"/>
      </g>
    </g>
  </g>
</svg>
