<svg id="instagram" xmlns="http://www.w3.org/2000/svg" width="16.202" height="16.205" viewBox="0 0 16.202 16.205">
  <path id="Path_12206" data-name="Path 12206" d="M16.609,4.764A5.921,5.921,0,0,0,16.232,2.8,4.151,4.151,0,0,0,13.861.427,5.936,5.936,0,0,0,11.9.051C11.028.01,10.753,0,8.552,0S6.077.01,5.213.048A5.923,5.923,0,0,0,3.247.424a3.954,3.954,0,0,0-1.437.937A3.99,3.99,0,0,0,.876,2.8,5.937,5.937,0,0,0,.5,4.761C.458,5.629.449,5.9.449,8.1s.01,2.475.047,3.34A5.921,5.921,0,0,0,.873,13.41a4.15,4.15,0,0,0,2.371,2.371,5.937,5.937,0,0,0,1.966.377c.864.038,1.14.047,3.34.047s2.475-.009,3.34-.047a5.92,5.92,0,0,0,1.966-.377,4.145,4.145,0,0,0,2.371-2.371,5.941,5.941,0,0,0,.377-1.966c.038-.864.047-1.14.047-3.34s0-2.475-.041-3.34ZM15.15,11.38a4.442,4.442,0,0,1-.279,1.5,2.688,2.688,0,0,1-1.539,1.539,4.457,4.457,0,0,1-1.5.278c-.855.038-1.111.047-3.273.047s-2.422-.009-3.273-.047a4.439,4.439,0,0,1-1.5-.278,2.493,2.493,0,0,1-.931-.6,2.519,2.519,0,0,1-.6-.931,4.458,4.458,0,0,1-.278-1.5c-.038-.855-.047-1.111-.047-3.273s.009-2.422.047-3.273a4.439,4.439,0,0,1,.278-1.5A2.463,2.463,0,0,1,2.851,2.4a2.516,2.516,0,0,1,.931-.6,4.46,4.46,0,0,1,1.5-.279c.855-.038,1.111-.047,3.273-.047s2.422.01,3.273.047a4.442,4.442,0,0,1,1.5.279,2.492,2.492,0,0,1,.931.6,2.519,2.519,0,0,1,.6.931,4.46,4.46,0,0,1,.279,1.5c.038.855.047,1.111.047,3.273s-.01,2.415-.047,3.27Zm0,0" transform="translate(-0.449 0)" fill="#bdbdbd"/>
  <path id="Path_12207" data-name="Path 12207" d="M129.112,124.5a4.163,4.163,0,1,0,4.163,4.163A4.164,4.164,0,0,0,129.112,124.5Zm0,6.863a2.7,2.7,0,1,1,2.7-2.7A2.7,2.7,0,0,1,129.112,131.363Zm0,0" transform="translate(-121.008 -120.559)" fill="#bdbdbd"/>
  <path id="Path_12208" data-name="Path 12208" d="M364.393,89.574a.972.972,0,1,1-.972-.972A.972.972,0,0,1,364.393,89.574Zm0,0" transform="translate(-350.99 -85.797)" fill="#bdbdbd"/>
</svg>
