<svg id="key" xmlns="http://www.w3.org/2000/svg" width="29.758" height="27.316" viewBox="0 0 29.758 27.316">
  <path id="Path_9140" data-name="Path 9140" d="M126,83.33a2.325,2.325,0,1,0,2.325-2.325A2.327,2.327,0,0,0,126,83.33Zm3.487,0a1.162,1.162,0,1,1-1.162-1.162A1.164,1.164,0,0,1,129.487,83.33Z" transform="translate(-118.677 -77.518)" fill="#fff"/>
  <path id="Path_9141" data-name="Path 9141" d="M66,26.817a5.813,5.813,0,0,0,11.14,2.325H87.853a.58.58,0,0,0,.26-.061L91.6,27.337a.581.581,0,0,0,.151-.931l-3.487-3.487a.581.581,0,0,0-.822,0L86.11,24.251l-1.333-1.333a.581.581,0,0,0-.822,0l-1.333,1.333L81.29,22.919a.581.581,0,0,0-.822,0l-1.573,1.573H77.14A5.813,5.813,0,0,0,66,26.817Zm10.2-1.55a.581.581,0,0,0,.548.387h2.39a.581.581,0,0,0,.411-.17l1.333-1.333,1.333,1.333a.581.581,0,0,0,.822,0l1.333-1.333L85.7,25.484a.581.581,0,0,0,.822,0l1.333-1.333,2.506,2.506-2.643,1.322H76.745a.581.581,0,0,0-.548.387,4.65,4.65,0,1,1,0-3.1Z" transform="translate(-62.164 -21.005)" fill="#fff"/>
  <ellipse id="Ellipse_3264" data-name="Ellipse 3264" cx="0.304" cy="0.607" rx="0.304" ry="0.607" transform="translate(22.471 21.851)" fill="#fff"/>
  <path id="Path_9142" data-name="Path 9142" d="M24.089,281.144l-3.327,2.208a2.336,2.336,0,0,0-2.022-1.185H15.911a1.16,1.16,0,0,1-.768-.283l-.41-.36a5.824,5.824,0,0,0-7.679,0l-.88.774L4.65,283.375v-.337a.581.581,0,0,0-.581-.581H.581a.581.581,0,0,0-.581.581v8.718a.581.581,0,0,0,.581.581H4.068a.581.581,0,0,0,.581-.581V290.3H6.477l10.03,2.023a.581.581,0,0,0,.459-.1l4.055-2.983a.581.581,0,0,0-.689-.936l-3.848,2.831L6.65,289.152a.581.581,0,0,0-.115-.011H4.65V284.8a21.446,21.446,0,0,0,3.173-2.4,4.659,4.659,0,0,1,6.143,0l.41.36a2.321,2.321,0,0,0,1.536.573H18.74a1.162,1.162,0,1,1,0,2.325H11.766a.581.581,0,0,0,0,1.162H18.74a2.324,2.324,0,0,0,2.324-2.269l3.666-2.433a2.9,2.9,0,0,1,3.6.311l-3.782,2.782a.581.581,0,1,0,.689.936l4.287-3.153a.581.581,0,0,0,.129-.8A4.059,4.059,0,0,0,24.089,281.144Zm-20.6,10.031H1.162v-7.556H3.487Z" transform="translate(0 -265.021)" fill="#fff"/>
</svg>
