<svg xmlns="http://www.w3.org/2000/svg" width="18.443" height="13.958" viewBox="0 0 18.443 13.958">
  <g id="multimedia" transform="translate(0.25 -68.104)">
    <g id="envelope-1" transform="translate(0 68.353)">
      <g id="Group_2787" data-name="Group 2787">
        <path id="Path_2559" data-name="Path 2559" d="M16.448,64H1.5A1.5,1.5,0,0,0,0,65.5V75.962a1.5,1.5,0,0,0,1.5,1.5H16.448a1.5,1.5,0,0,0,1.5-1.5V65.5A1.5,1.5,0,0,0,16.448,64ZM1.5,64.748H16.448a.711.711,0,0,1,.155.031c-1.295,1.185-5.587,5.112-7.089,6.465a.75.75,0,0,1-1.085,0c-1.5-1.353-5.795-5.28-7.089-6.465A.714.714,0,0,1,1.5,64.748ZM.748,75.962V65.5a.722.722,0,0,1,.042-.207c.991.907,3.986,3.647,5.928,5.413-1.936,1.663-4.932,4.5-5.93,5.455A.72.72,0,0,1,.748,75.962Zm15.7.748H1.5a.715.715,0,0,1-.169-.034c1.032-.984,4.047-3.84,5.949-5.467l.653.591a1.493,1.493,0,0,0,2.086,0l.653-.591c1.9,1.627,4.916,4.483,5.949,5.467A.715.715,0,0,1,16.448,76.71Zm.748-.748a.722.722,0,0,1-.039.195c-1-.953-3.995-3.793-5.93-5.455,1.942-1.766,4.937-4.506,5.928-5.413a.723.723,0,0,1,.042.207Z" transform="translate(0 -64)" fill="#f5f5f5" stroke="#f5f5f5" stroke-width="0.5"/>
      </g>
    </g>
  </g>
</svg>
