<svg xmlns="http://www.w3.org/2000/svg" width="19.119" height="19.105" viewBox="0 0 19.119 19.105">
  <path id="Path_2294" data-name="Path 2294" d="M1.474,14.931,5.124,12.5a1.066,1.066,0,0,1,1.427.232L7.614,14.1a.454.454,0,0,0,.583.123l.2-.112a12.224,12.224,0,0,0,3.186-2.5,12.274,12.274,0,0,0,2.5-3.186l.111-.2a.455.455,0,0,0-.12-.585L12.712,6.568a1.066,1.066,0,0,1-.232-1.427l2.435-3.651a1.06,1.06,0,0,1,1.429-.322l1.527.917a2.153,2.153,0,0,1,.982,1.274c.55,2,.136,5.46-4.956,10.552-4.051,4.05-7.066,5.139-9.139,5.139a5.325,5.325,0,0,1-1.413-.185,2.151,2.151,0,0,1-1.274-.982L1.152,16.36A1.06,1.06,0,0,1,1.474,14.931Zm.2,1.121.916,1.527a1.553,1.553,0,0,0,.917.711c1.849.508,5.079.087,9.968-4.8s5.309-8.119,4.8-9.968a1.556,1.556,0,0,0-.711-.918l-1.527-.916a.46.46,0,0,0-.62.139L14.092,3.811l-1.11,1.665a.463.463,0,0,0,.1.619l1.367,1.063a1.052,1.052,0,0,1,.279,1.35l-.109.2a12.75,12.75,0,0,1-2.605,3.324,12.764,12.764,0,0,1-3.324,2.6l-.2.109a1.052,1.052,0,0,1-1.35-.279L6.079,13.1A.463.463,0,0,0,5.46,13L1.81,15.432A.46.46,0,0,0,1.67,16.052Z" transform="translate(-0.43 -0.448)" fill="#f5f5f5" stroke="#f5f5f5" stroke-width="1"/>
</svg>
