<svg xmlns="http://www.w3.org/2000/svg" width="13.507" height="19.209" viewBox="0 0 13.507 19.209">
  <g id="placeholder_1_" data-name="placeholder (1)" transform="translate(-76)">
    <g id="Group_835" data-name="Group 835" transform="translate(76)">
      <g id="Group_834" data-name="Group 834" transform="translate(0)">
        <path id="Path_1455" data-name="Path 1455" d="M82.753,0a6.755,6.755,0,0,0-5.745,10.3l5.361,8.639a.563.563,0,0,0,.478.266h0a.563.563,0,0,0,.478-.274l5.224-8.723A6.755,6.755,0,0,0,82.753,0Zm4.835,9.635-4.75,7.93L77.965,9.711a5.631,5.631,0,1,1,9.623-.076Z" transform="translate(-76)" fill="#f5f5f5"/>
      </g>
    </g>
    <g id="Group_837" data-name="Group 837" transform="translate(79.377 3.377)">
      <g id="Group_836" data-name="Group 836">
        <path id="Path_1456" data-name="Path 1456" d="M169.377,90a3.377,3.377,0,1,0,3.377,3.377A3.38,3.38,0,0,0,169.377,90Zm0,5.635a2.259,2.259,0,1,1,2.255-2.259A2.26,2.26,0,0,1,169.377,95.635Z" transform="translate(-166 -90)" fill="#f5f5f5"/>
      </g>
    </g>
  </g>
</svg>
