<svg id="share" xmlns="http://www.w3.org/2000/svg" width="16.928" height="18.602" viewBox="0 0 16.928 18.602">
  <g id="Group_3595" data-name="Group 3595" transform="translate(0)">
    <g id="Group_3594" data-name="Group 3594">
      <path id="Path_1672" data-name="Path 1672" d="M36.926,12.5a3.046,3.046,0,0,0-2.4,1.167l-5.6-3.232a3.04,3.04,0,0,0,0-2.27l5.6-3.232a3.043,3.043,0,1,0-.434-.748L28.5,7.418a3.051,3.051,0,1,0,0,3.767l5.6,3.232A3.05,3.05,0,1,0,36.926,12.5Zm0-11.636A2.186,2.186,0,1,1,34.74,3.051,2.188,2.188,0,0,1,36.926.865ZM26.1,11.487A2.186,2.186,0,1,1,28.285,9.3,2.188,2.188,0,0,1,26.1,11.487Zm10.826,6.251a2.186,2.186,0,1,1,2.186-2.186A2.188,2.188,0,0,1,36.926,17.737Z" transform="translate(-23.049)" fill="#707070"/>
    </g>
  </g>
</svg>
