<svg id="twitter" xmlns="http://www.w3.org/2000/svg" width="16.191" height="13.155" viewBox="0 0 16.191 13.155">
  <g id="Group_489" data-name="Group 489">
    <path id="Path_12205" data-name="Path 12205" d="M16.19,49.557a6.92,6.92,0,0,1-1.913.524,3.3,3.3,0,0,0,1.46-1.835,6.633,6.633,0,0,1-2.1.8,3.319,3.319,0,0,0-5.742,2.27,3.418,3.418,0,0,0,.077.757,9.4,9.4,0,0,1-6.842-3.472,3.32,3.32,0,0,0,1.02,4.436,3.278,3.278,0,0,1-1.5-.409v.036A3.334,3.334,0,0,0,3.307,55.93a3.313,3.313,0,0,1-.87.109,2.935,2.935,0,0,1-.628-.057A3.351,3.351,0,0,0,4.91,58.3,6.669,6.669,0,0,1,.794,59.711,6.217,6.217,0,0,1,0,59.665a9.344,9.344,0,0,0,5.092,1.49,9.382,9.382,0,0,0,9.447-9.445c0-.147-.005-.288-.012-.429A6.622,6.622,0,0,0,16.19,49.557Z" transform="translate(0 -48)" fill="#bdbdbd"/>
  </g>
</svg>
