<svg xmlns="http://www.w3.org/2000/svg" width="27.715" height="28.971" viewBox="0 0 27.715 28.971">
  <g id="user-5" transform="translate(-11.078 0.25)">
    <g id="Group_2800" data-name="Group 2800" transform="translate(11.328 14.272)">
      <g id="Group_2799" data-name="Group 2799" transform="translate(0)">
        <path id="Path_12218" data-name="Path 12218" d="M24.935,257.323A13.623,13.623,0,0,0,11.328,270.93a.592.592,0,0,0,1.183,0,12.424,12.424,0,1,1,24.848,0,.592.592,0,0,0,1.183,0A13.622,13.622,0,0,0,24.935,257.323Z" transform="translate(-11.328 -257.323)" fill="#c0a059" stroke="#c0a059" stroke-width="0.5"/>
      </g>
    </g>
    <g id="Group_2802" data-name="Group 2802" transform="translate(18.427)">
      <g id="Group_2801" data-name="Group 2801" transform="translate(0)">
        <path id="Path_12219" data-name="Path 12219" d="M145.836,0a6.508,6.508,0,1,0,6.508,6.508A6.515,6.515,0,0,0,145.836,0Zm0,11.832a5.325,5.325,0,1,1,5.325-5.325A5.331,5.331,0,0,1,145.836,11.832Z" transform="translate(-139.328)" fill="#c0a059" stroke="#c0a059" stroke-width="0.5"/>
      </g>
    </g>
  </g>
</svg>
