<svg xmlns="http://www.w3.org/2000/svg" width="132.242" height="55.849" viewBox="0 0 132.242 55.849">
  <g id="Untitled-3-01" transform="translate(-39.89 -98)">
    <path id="Path_2580" data-name="Path 2580" d="M278.21,197.258a1.646,1.646,0,0,1-.775-.936,5.22,5.22,0,0,1-.227-1.707v-5.28l-3.43,7.612h-.273l-3.566-7.751v7.751h-.549V187.89H270.7l3.284,7.135,3.224-7.133h1.234v6.721a4.812,4.812,0,0,0,.324,1.975,1.041,1.041,0,0,0,.979.7v.273A3.251,3.251,0,0,1,278.21,197.258Z" transform="translate(-186.534 -73.061)" fill="#fff"/>
    <path id="Path_2581" data-name="Path 2581" d="M332.067,196.354a2.355,2.355,0,0,1-1.028-1.385l-.344-.953h-3.84l-1.1,2.675h-.618l3.842-9.121h.41l3.024,7.4a3.586,3.586,0,0,0,.644,1.09,1.376,1.376,0,0,0,.865.346v.279h-.554A2.85,2.85,0,0,1,332.067,196.354Zm-1.646-2.9-1.646-3.978-1.715,3.978Z" transform="translate(-231.847 -72.801)" fill="#fff"/>
    <path id="Path_2582" data-name="Path 2582" d="M372.018,195.394a4.064,4.064,0,0,1-1.5-1.685,5.291,5.291,0,0,1-.522-2.366,5.5,5.5,0,0,1,.562-2.483,4.583,4.583,0,0,1,1.55-1.8,3.744,3.744,0,0,1,2.132-.659,5.519,5.519,0,0,1,1.928.309,2.834,2.834,0,0,1,1.226.788,1.443,1.443,0,0,1,.288.762,11.594,11.594,0,0,1,.056,1.3h-.255a3.48,3.48,0,0,0-.96-1.968,2.634,2.634,0,0,0-1.848-.635A3.013,3.013,0,0,0,372.291,188a5.049,5.049,0,0,0-.9,3.346,5.676,5.676,0,0,0,.35,2.016,3.39,3.39,0,0,0,1.09,1.516,2.9,2.9,0,0,0,1.852.582,3.16,3.16,0,0,0,1.749-.479,4.449,4.449,0,0,0,1.339-1.44l.273.206a3.994,3.994,0,0,1-1.556,1.749,4.506,4.506,0,0,1-2.217.513A4.083,4.083,0,0,1,372.018,195.394Z" transform="translate(-268.306 -71.854)" fill="#fff"/>
    <path id="Path_2583" data-name="Path 2583" d="M415.563,188.5a.8.8,0,0,0-.768-.335h-.275v-.275h5.843q1.164,0,1.166,1.1v1.028h-.275q0-1.578-1.713-1.578h-2.552v3.566h3.7v.549h-3.7V196.4h2.4a2.729,2.729,0,0,0,1.481-.343,2.3,2.3,0,0,0,.85-1.166l.275.067-.479,1.311a.99.99,0,0,1-1.03.687h-4.731v-7.414A2.174,2.174,0,0,0,415.563,188.5Z" transform="translate(-304.493 -73.061)" fill="#fff"/>
    <path id="Path_2584" data-name="Path 2584" d="M474,188.439q-1.717,0-1.715,1.578H472v-1.028q0-1.1,1.166-1.1h6.378v.549h-3.082v8.505h-1.234v-8.505Z" transform="translate(-351.212 -73.061)" fill="#fff"/>
    <path id="Path_2585" data-name="Path 2585" d="M513.223,188.484a.8.8,0,0,0-.769-.335h-.273v-.275h1.234a1.741,1.741,0,0,1,.762.131.764.764,0,0,1,.363.474,3.674,3.674,0,0,1,.11,1.043v2.467h4.119V187.87H520v7.408a2.169,2.169,0,0,0,.187,1.035.814.814,0,0,0,.769.335h.273v.275H520a1.712,1.712,0,0,1-.762-.131.749.749,0,0,1-.363-.474,3.673,3.673,0,0,1-.109-1.041v-2.741h-4.119v4.39H513.41v-7.406A2.177,2.177,0,0,0,513.223,188.484Z" transform="translate(-383.87 -73.045)" fill="#fff"/>
    <path id="Path_2586" data-name="Path 2586" d="M561.793,188.5a.809.809,0,0,0-.768-.335h-.275v-.275H566.6q1.164,0,1.166,1.1v1.028h-.275q0-1.578-1.713-1.578h-2.559v3.566h3.7v.549h-3.7V196.4h2.4a2.729,2.729,0,0,0,1.481-.343,2.3,2.3,0,0,0,.85-1.166l.275.067-.479,1.311a.99.99,0,0,1-1.03.687h-4.731v-7.414A2.174,2.174,0,0,0,561.793,188.5Z" transform="translate(-423.347 -73.061)" fill="#fff"/>
    <path id="Path_2587" data-name="Path 2587" d="M623.773,196.354a2.362,2.362,0,0,1-1.03-1.385l-.343-.953h-3.845l-1.1,2.675h-.618l3.84-9.121h.412l3.018,7.406a3.585,3.585,0,0,0,.644,1.09,1.372,1.372,0,0,0,.865.346v.279h-.549A2.838,2.838,0,0,1,623.773,196.354Zm-1.646-2.9-1.648-3.978-1.713,3.978Z" transform="translate(-468.936 -72.801)" fill="#fff"/>
    <path id="Path_2588" data-name="Path 2588" d="M663.746,195.451a4.091,4.091,0,0,1-1.5-1.685,5.314,5.314,0,0,1-.52-2.366,5.472,5.472,0,0,1,.562-2.482,4.583,4.583,0,0,1,1.567-1.782,3.744,3.744,0,0,1,2.132-.659,5.5,5.5,0,0,1,1.927.309,2.842,2.842,0,0,1,1.228.788,1.458,1.458,0,0,1,.288.762,12.144,12.144,0,0,1,.054,1.3h-.273a3.5,3.5,0,0,0-.96-1.968,2.649,2.649,0,0,0-1.852-.638,3.009,3.009,0,0,0-2.387,1.043,5.049,5.049,0,0,0-.9,3.346,5.718,5.718,0,0,0,.354,2.007,3.409,3.409,0,0,0,1.091,1.516,2.9,2.9,0,0,0,1.852.582,3.164,3.164,0,0,0,1.749-.479,4.425,4.425,0,0,0,1.337-1.44l.275.206a3.99,3.99,0,0,1-1.558,1.749,4.493,4.493,0,0,1-2.215.513A4.1,4.1,0,0,1,663.746,195.451Z" transform="translate(-505.419 -71.911)" fill="#fff"/>
    <path id="Path_2589" data-name="Path 2589" d="M707.293,188.5a.812.812,0,0,0-.769-.335h-.273v-.275h5.843q1.164,0,1.166,1.1v1.028h-.275q0-1.578-1.715-1.578h-2.55v3.566h3.7v.549h-3.7V196.4h2.4a2.729,2.729,0,0,0,1.481-.343,2.305,2.305,0,0,0,.85-1.166l.275.067-.481,1.311a.989.989,0,0,1-1.028.687h-4.733v-7.414A2.177,2.177,0,0,0,707.293,188.5Z" transform="translate(-541.607 -73.061)" fill="#fff"/>
    <path id="Path_2590" data-name="Path 2590" d="M271.836,276.334H270v2.63h-.541V272.65h2.059a2.343,2.343,0,0,1,1.58.491,1.872,1.872,0,0,1,.212,2.434,1.812,1.812,0,0,1-.955.64l1.58,2.685v.058h-.562ZM270,275.883h1.634a1.513,1.513,0,0,0,1.078-.384,1.44,1.44,0,0,0-.017-2.026,1.765,1.765,0,0,0-1.193-.374h-1.5Z" transform="translate(-186.591 -141.953)" fill="#fff"/>
    <path id="Path_2591" data-name="Path 2591" d="M303.567,285.691a2.037,2.037,0,0,1-1.082-.294,1.986,1.986,0,0,1-.749-.82,2.584,2.584,0,0,1-.268-1.183v-.187a2.773,2.773,0,0,1,.262-1.219,2.108,2.108,0,0,1,.732-.854,1.8,1.8,0,0,1,1.015-.311,1.7,1.7,0,0,1,1.355.584,2.366,2.366,0,0,1,.5,1.593v.288H301.98v.1a1.964,1.964,0,0,0,.459,1.329,1.447,1.447,0,0,0,1.15.532,1.545,1.545,0,0,0,1.316-.637l.324.247A1.893,1.893,0,0,1,303.567,285.691Zm-.1-4.422a1.292,1.292,0,0,0-.987.429,1.983,1.983,0,0,0-.489,1.155H304.8v-.058a1.73,1.73,0,0,0-.388-1.1A1.194,1.194,0,0,0,303.472,281.269Z" transform="translate(-212.607 -148.594)" fill="#fff"/>
    <path id="Path_2592" data-name="Path 2592" d="M333.343,285.666a2.529,2.529,0,0,1-.1-.657,1.746,1.746,0,0,1-.693.55,2.157,2.157,0,0,1-.9.187,1.582,1.582,0,0,1-1.1-.374,1.223,1.223,0,0,1-.418-.951,1.252,1.252,0,0,1,.571-1.086,2.735,2.735,0,0,1,1.591-.4h.936v-.524a1.026,1.026,0,0,0-.309-.79,1.277,1.277,0,0,0-.9-.288,1.4,1.4,0,0,0-.9.279.824.824,0,0,0-.356.666h-.517a1.207,1.207,0,0,1,.519-.97,1.994,1.994,0,0,1,1.281-.412,1.827,1.827,0,0,1,1.237.393,1.41,1.41,0,0,1,.466,1.1v2.22a2.769,2.769,0,0,0,.142,1.02v.051Zm-1.631-.374a1.756,1.756,0,0,0,.936-.251,1.481,1.481,0,0,0,.593-.672v-1.032h-.927a2.331,2.331,0,0,0-1.215.283.856.856,0,0,0-.438.749.841.841,0,0,0,.294.657A1.106,1.106,0,0,0,331.712,285.292Z" transform="translate(-235.908 -148.654)" fill="#fff"/>
    <path id="Path_2593" data-name="Path 2593" d="M361.662,277.453h-.522V270.79h.522Z" transform="translate(-261.107 -140.441)" fill="#fff"/>
    <path id="Path_2594" data-name="Path 2594" d="M397.85,275.936H394.9v2.584h3.394v.453H394.36V272.65h3.909v.455H394.9v2.38h2.951Z" transform="translate(-288.107 -141.953)" fill="#fff"/>
    <path id="Path_2595" data-name="Path 2595" d="M426.431,284.384a.736.736,0,0,0-.311-.62,2.435,2.435,0,0,0-.936-.374,4.233,4.233,0,0,1-.97-.3,1.26,1.26,0,0,1-.511-.416,1.057,1.057,0,0,1-.167-.6,1.123,1.123,0,0,1,.464-.919,1.859,1.859,0,0,1,1.189-.363,1.936,1.936,0,0,1,1.26.388,1.247,1.247,0,0,1,.474,1.015h-.52a.841.841,0,0,0-.344-.687,1.558,1.558,0,0,0-1.685-.043.7.7,0,0,0-.309.59.635.635,0,0,0,.257.545,2.692,2.692,0,0,0,.936.354,4.278,4.278,0,0,1,1.024.344,1.338,1.338,0,0,1,.505.438,1.2,1.2,0,0,1-.313,1.567,2.042,2.042,0,0,1-1.251.356,2.11,2.11,0,0,1-1.333-.4,1.219,1.219,0,0,1-.511-1h.522a.9.9,0,0,0,.384.71,1.58,1.58,0,0,0,.936.253,1.46,1.46,0,0,0,.874-.24A.715.715,0,0,0,426.431,284.384Z" transform="translate(-311.694 -148.567)" fill="#fff"/>
    <path id="Path_2596" data-name="Path 2596" d="M450.977,274.9v1.2h.974v.425h-.974v3.128a.985.985,0,0,0,.14.582.549.549,0,0,0,.47.187,2.885,2.885,0,0,0,.421-.047l.022.425a1.709,1.709,0,0,1-.562.073.923.923,0,0,1-.775-.309,1.447,1.447,0,0,1-.243-.912v-3.128h-.861V276.1h.861v-1.2Z" transform="translate(-332.997 -143.781)" fill="#fff"/>
    <path id="Path_2597" data-name="Path 2597" d="M473.773,285.577a2.529,2.529,0,0,1-.1-.657,1.745,1.745,0,0,1-.693.55,2.157,2.157,0,0,1-.9.187,1.582,1.582,0,0,1-1.1-.374,1.222,1.222,0,0,1-.418-.951,1.252,1.252,0,0,1,.571-1.086,2.735,2.735,0,0,1,1.591-.4h.936v-.524a1.026,1.026,0,0,0-.309-.79,1.277,1.277,0,0,0-.9-.288,1.4,1.4,0,0,0-.9.279.824.824,0,0,0-.356.667h-.517a1.208,1.208,0,0,1,.528-.99,1.994,1.994,0,0,1,1.281-.412,1.827,1.827,0,0,1,1.237.393,1.41,1.41,0,0,1,.466,1.1v2.22a2.769,2.769,0,0,0,.142,1.02v.051Zm-1.631-.374a1.756,1.756,0,0,0,.936-.251,1.481,1.481,0,0,0,.594-.672v-1.032h-.927a2.33,2.33,0,0,0-1.215.283.856.856,0,0,0-.438.749.841.841,0,0,0,.294.657,1.107,1.107,0,0,0,.76.266Z" transform="translate(-350.048 -148.565)" fill="#fff"/>
    <path id="Path_2598" data-name="Path 2598" d="M499.529,274.9v1.2h.972v.425h-.972v3.128a.985.985,0,0,0,.14.582.545.545,0,0,0,.47.187,2.876,2.876,0,0,0,.419-.047l.024.425a1.708,1.708,0,0,1-.562.073.936.936,0,0,1-.777-.309,1.447,1.447,0,0,1-.243-.912v-3.128h-.861V276.1H499v-1.2Z" transform="translate(-372.458 -143.781)" fill="#fff"/>
    <path id="Path_2599" data-name="Path 2599" d="M521.041,285.691a2.048,2.048,0,0,1-1.084-.294,1.969,1.969,0,0,1-.749-.82,2.559,2.559,0,0,1-.27-1.183v-.187a2.747,2.747,0,0,1,.264-1.219,2.08,2.08,0,0,1,.732-.854,1.792,1.792,0,0,1,1.013-.311,1.7,1.7,0,0,1,1.355.584,2.366,2.366,0,0,1,.5,1.593v.288h-3.351v.1a1.964,1.964,0,0,0,.457,1.329,1.451,1.451,0,0,0,1.149.532,1.685,1.685,0,0,0,.736-.152,1.706,1.706,0,0,0,.582-.485l.324.247A1.9,1.9,0,0,1,521.041,285.691Zm-.1-4.422a1.292,1.292,0,0,0-.987.429,2.007,2.007,0,0,0-.489,1.155h2.808v-.058a1.728,1.728,0,0,0-.386-1.1A1.2,1.2,0,0,0,520.944,281.269Z" transform="translate(-389.362 -148.594)" fill="#fff"/>
    <path id="Path_2600" data-name="Path 2600" d="M568.608,272.65l2.329,5.573,2.336-5.573h.71v6.315h-.532v-2.75l.041-2.819-2.348,5.57h-.417l-2.34-5.547.043,2.778v2.769h-.53V272.65Z" transform="translate(-429.158 -141.953)" fill="#fff"/>
    <path id="Path_2601" data-name="Path 2601" d="M614.162,285.666a2.531,2.531,0,0,1-.1-.657,1.745,1.745,0,0,1-.693.55,2.157,2.157,0,0,1-.9.187,1.582,1.582,0,0,1-1.1-.374,1.223,1.223,0,0,1-.417-.951,1.253,1.253,0,0,1,.562-1.086,2.735,2.735,0,0,1,1.591-.4h.936v-.524a1.026,1.026,0,0,0-.309-.79,1.277,1.277,0,0,0-.9-.288,1.4,1.4,0,0,0-.9.279.824.824,0,0,0-.356.666h-.517a1.207,1.207,0,0,1,.518-.97,1.994,1.994,0,0,1,1.281-.412,1.827,1.827,0,0,1,1.237.393,1.41,1.41,0,0,1,.466,1.1v2.22a2.768,2.768,0,0,0,.142,1.02v.051Zm-1.631-.374a1.756,1.756,0,0,0,.936-.251,1.481,1.481,0,0,0,.593-.672v-1.032h-.927a2.331,2.331,0,0,0-1.215.283.856.856,0,0,0-.438.749.841.841,0,0,0,.294.657A1.106,1.106,0,0,0,612.532,285.292Z" transform="translate(-464.154 -148.654)" fill="#fff"/>
    <path id="Path_2602" data-name="Path 2602" d="M639.969,274.9v1.2h.972v.425h-.972v3.128a.985.985,0,0,0,.14.582.545.545,0,0,0,.468.187,2.881,2.881,0,0,0,.421-.047l.024.425a1.708,1.708,0,0,1-.562.073.936.936,0,0,1-.777-.309,1.447,1.447,0,0,1-.243-.912v-3.128h-.861V276.1h.861v-1.2Z" transform="translate(-486.605 -143.781)" fill="#fff"/>
    <path id="Path_2603" data-name="Path 2603" d="M659.127,274.9v1.2h.974v.425h-.974v3.128a.985.985,0,0,0,.14.582.548.548,0,0,0,.47.187,2.882,2.882,0,0,0,.421-.047l.022.425a1.708,1.708,0,0,1-.562.073.936.936,0,0,1-.775-.309,1.446,1.446,0,0,1-.243-.912v-3.128h-.861V276.1h.861v-1.2Z" transform="translate(-502.178 -143.781)" fill="#fff"/>
    <path id="Path_2604" data-name="Path 2604" d="M680.647,285.691a2.037,2.037,0,0,1-1.082-.294,1.986,1.986,0,0,1-.749-.82,2.583,2.583,0,0,1-.268-1.183v-.187a2.773,2.773,0,0,1,.262-1.219,2.108,2.108,0,0,1,.732-.854,1.8,1.8,0,0,1,1.015-.311,1.7,1.7,0,0,1,1.355.584,2.366,2.366,0,0,1,.5,1.593v.288H679.06v.1a1.964,1.964,0,0,0,.459,1.329,1.447,1.447,0,0,0,1.15.532,1.545,1.545,0,0,0,1.316-.637l.324.247A1.893,1.893,0,0,1,680.647,285.691Zm-.1-4.422a1.292,1.292,0,0,0-.983.429,1.982,1.982,0,0,0-.489,1.155h2.808v-.058a1.73,1.73,0,0,0-.388-1.1A1.2,1.2,0,0,0,680.552,281.269Z" transform="translate(-519.091 -148.594)" fill="#fff"/>
    <path id="Path_2605" data-name="Path 2605" d="M710.69,281.379a2.343,2.343,0,0,0-.352-.026,1.273,1.273,0,0,0-.822.27,1.487,1.487,0,0,0-.479.788v3.222h-.517v-4.693h.509v.749a1.378,1.378,0,0,1,1.322-.833.812.812,0,0,1,.343.058Z" transform="translate(-543.451 -148.621)" fill="#fff"/>
    <path id="Path_2606" data-name="Path 2606" d="M730.219,284.384a.736.736,0,0,0-.311-.62,2.433,2.433,0,0,0-.936-.374,4.234,4.234,0,0,1-.97-.3,1.26,1.26,0,0,1-.511-.416,1.057,1.057,0,0,1-.167-.6,1.123,1.123,0,0,1,.464-.919,1.872,1.872,0,0,1,1.189-.363,1.935,1.935,0,0,1,1.26.388,1.247,1.247,0,0,1,.474,1.015h-.52a.841.841,0,0,0-.344-.687,1.558,1.558,0,0,0-1.685-.043.7.7,0,0,0-.309.59.635.635,0,0,0,.256.545,2.693,2.693,0,0,0,.936.354,4.274,4.274,0,0,1,1.024.344,1.338,1.338,0,0,1,.505.438,1.2,1.2,0,0,1-.313,1.567,2.039,2.039,0,0,1-1.251.356,2.11,2.11,0,0,1-1.333-.395,1.217,1.217,0,0,1-.509-1h.53a.906.906,0,0,0,.374.71,1.58,1.58,0,0,0,.936.253,1.461,1.461,0,0,0,.874-.24A.715.715,0,0,0,730.219,284.384Z" transform="translate(-558.61 -148.567)" fill="#fff"/>
    <rect id="Rectangle_1114" data-name="Rectangle 1114" width="89.261" height="0.53" transform="translate(82.858 127.964)" fill="#fff"/>
    <path id="Path_2607" data-name="Path 2607" d="M64.42,249.3v15.584l.917.919V251.517l10.372,10.372-7.144,7.142,7.792,7.792,7.792-7.792-5.036-5.038v8.777l-2.756,2.754-6.493-6.493L87.4,251.49l.017,14.3.882-.936V249.3L76.359,261.239Zm15.61,16.863,2.821,2.868L80.03,271.85Z" transform="translate(-19.938 -122.974)" fill="#fff"/>
    <path id="Path_2608" data-name="Path 2608" d="M67.431,114.258,64.193,111l5.2-5.206L61.607,98l-4.544,4.542h1.3l3.244-3.231,2.333,2.333H60.6l-.917.919h5.18L68.1,105.8l-4.555,4.553L59.7,106.5l-3.293,3.2-3.246-3.25-3.894,3.9L44.724,105.8l3.237-3.241h5.208l-.919-.919H48.88l2.336-2.327,3.246,3.244h1.3L51.217,98l-7.792,7.8,5.2,5.2-3.239,3.239-5.491-5.491v28.575l.936.936V117.484l15.591,15.593,15.6-15.606.013,20.766.919-.917V108.741Zm-14.266-6.513,3.246,3.248,3.248-3.248,3.246,3.248-6.495,6.493h0l-6.489-6.491Zm-3.894,3.9,7.14,7.135h0l7.144-7.142,3.246,3.246L56.419,125.266,46.038,114.887Zm7.146,20.124-15.6-15.6v-5.188l15.591,15.591,15.6-15.606v5.2Z" fill="#fff"/>
  </g>
</svg>
